HIERARCHY
ROOT Hips
{
  OFFSET 0.0 0.0 0.0
  CHANNELS 6 XPOSITION YPOSITION ZPOSITION ZROTATION XROTATION YROTATION 
  JOINT LeftUpLeg
  {
    OFFSET 0.089458038 -0.086670642 0.001016508
    CHANNELS 3 ZROTATION XROTATION YROTATION 
    JOINT LeftLeg
    {
      OFFSET -3.0480000000000003e-06 -0.44256934600000003 0.040725597999999995
      CHANNELS 3 ZROTATION XROTATION YROTATION 
      JOINT LeftFoot
      {
        OFFSET -0.0025328880000000005 -0.41911778 -0.041605708000000005
        CHANNELS 3 ZROTATION XROTATION YROTATION 
        End Site
        {
          OFFSET -0.00040005 -0.044151042 0.08499119399999999
        }
      }
    }
  }
  JOINT Spine
  {
    OFFSET 0.0 0.11890502000000001 0.0
    CHANNELS 3 ZROTATION XROTATION YROTATION 
    JOINT Spine1
    {
      OFFSET -0.0 0.256575052 0.0012705080000000003
      CHANNELS 3 ZROTATION XROTATION YROTATION 
      End Site
      {
        OFFSET -0.0028999179999999996 0.215084406 0.025247600000000002
      }
      JOINT RightArm
      {
        OFFSET -0.16272758 -0.05365633 0.0010218419999999998
        CHANNELS 3 ZROTATION XROTATION YROTATION 
        JOINT RightForeArm
        {
          OFFSET -0.263648698 -0.000263906 -0.014099794
          CHANNELS 3 ZROTATION XROTATION YROTATION 
          End Site
          {
            OFFSET -0.22031909200000002 0.001914652 0.010174732
          }
        }
      }
      JOINT LeftArm
      {
        OFFSET 0.16272758 -0.05365633 0.0010208260000000003
        CHANNELS 3 ZROTATION XROTATION YROTATION 
        JOINT LeftForeArm
        {
          OFFSET 0.26260552000000004 -0.000263144 -0.014100810000000002
          CHANNELS 3 ZROTATION XROTATION YROTATION 
          End Site
          {
            OFFSET 0.220897958 0.001915922 0.01017524
          }
        }
      }
    }
  }
  JOINT RightUpLeg
  {
    OFFSET -0.089458038 -0.086670642 0.001016508
    CHANNELS 3 ZROTATION XROTATION YROTATION 
    JOINT RightLeg
    {
      OFFSET 1.5240000000000001e-06 -0.44256706 0.04075049
      CHANNELS 3 ZROTATION XROTATION YROTATION 
      JOINT RightFoot
      {
        OFFSET 0.0015628620000000001 -0.419119812 -0.041630854
        CHANNELS 3 ZROTATION XROTATION YROTATION 
        End Site
        {
          OFFSET 7.5692e-05 -0.044151550000000005 0.084991702
        }
      }
    }
  }
}
MOTION
Frames: 6
Frame Time: 0.033333
0.37281104 0.9773806807377773 -0.01763268 10.361368796379017 -2.1170711344285777 93.05003030853653 -0.009900554302551864 18.427046125919635 3.599375650134258 2.684854728291394 39.47778306300002 16.88773493041032 -12.847111130646669 1.2406300113124153 0.9611254369839768 5.046126683332496 6.268123938589116 -1.1605387862180228 0.021553213877297323 3.636401251851251 -1.1248650283481636 76.05307723820312 -0.030948681026812034 5.670309497049635 10.004390666955594 32.27888320611706 0.2835150426295733 -75.20054668638046 5.814917835270321 -1.22100634421844 -8.01294997669541 31.879115649090792 -6.696849363262116 5.3724795251780515 -12.444383540388854 -8.552795322088524 -1.2919008263171161 22.912322070840286 -16.54203344330659 -5.33929718552966 -3.8632847681534424 0.1351070114766702 
0.40339264 0.9783763607377773 -0.013764260000000002 10.630973438392346 -2.361822852486345 94.02349618980342 1.0152996159944618 12.177323997615002 1.409623512252223 3.3583811764502323 50.51433398808137 16.83640776634497 -9.056844499815249 8.416682458534863 1.2332847831903013 5.217839773500732 7.094456446076538 -1.1207818558849654 0.1904053835956438 2.9366588301106114 -1.1008458143581674 75.74787706533027 0.450948032107018 9.597080019764698 9.226067559144191 30.78621366490247 1.9358813702303603 -75.8904777548218 5.810976816119224 0.3137613080693583 -9.84488867436287 35.0558195565908 -4.118358182707569 5.738420143453001 -10.855313563002353 -7.876106282900558 -0.6547090101911888 24.469755465764933 -18.277205435907895 -4.779541411819136 -6.576895446624237 -0.007348358903404723 
0.43413934 0.9813608607377772 -0.011059160000000002 11.067485705605982 -2.2117215480690873 94.58150215442596 1.0087267328570881 6.436685750229038 -0.12066061443335109 4.189394284509817 58.65351183705414 16.35855065653795 -7.176063973166673 9.388051471726568 1.0173273284043094 5.400447442281961 7.690861307326058 -0.799088590435533 -0.16334590833177223 3.095986652879499 -0.6730824325019346 74.95610104617488 1.5770841693318915 13.437742347613412 8.034380548989972 28.13801442745242 4.870700958463535 -76.48402119369591 6.825045610680908 1.6711871006217422 -10.180516486214481 37.08790670260173 -3.859351006078338 5.819935462989342 -8.543951080887004 -6.675413668325677 -0.06638514985397284 25.029849760726197 -19.979215152541492 -4.143000224572505 -8.515084993907237 -0.0904975585735426 
0.4657598 0.9864078407377773 -0.00914146 11.338376984504212 -1.661936036277783 94.36745085602693 0.15719891150153265 1.212736692680847 -0.9401105457334342 4.856560332447492 63.14813148075937 15.759570387084514 -6.987388535081533 6.170099198055208 0.8055668114198785 5.402550286772679 7.860348182711693 -0.20876145028898696 -0.9384602012752299 3.618092502894209 0.11663247034969641 73.43823493711211 4.0065791487325475 17.29784851648186 6.8053260007734355 25.042740035237305 8.120755975007599 -77.09680527546193 8.40910094855615 3.3987377760480757 -9.182072603152847 36.84818755330179 -5.470818027526956 5.597933824396417 -5.670700952266441 -5.32292394142867 0.3651146989939074 24.42182461326437 -21.18388122966603 -3.7706114808342397 -10.152362446455689 -0.14700169253475484 
0.49667413999999993 0.9912948007377773 -0.00729488 11.36056912289123 -0.8333820097628151 93.78937096543373 -1.169085167138707 -3.646451875214925 -1.8748971724522552 4.963273927379302 64.112226342485 15.303272769392642 -7.654033781094995 2.5956262041914053 0.6719894955130268 5.170393010657592 7.970200676453946 0.40824355498198267 -1.9620207176274107 3.8568255436327257 0.9903430652625873 71.04956752019692 8.151633552697934 21.12742800862858 5.448121735801827 21.255314763100607 11.223816782876527 -77.74264747281083 10.236556480807142 5.39348491819678 -7.744422797023652 34.5638376155802 -7.665488862106753 4.980582480509761 -2.964526001924263 -4.040616115800837 0.8231922746556551 23.483220017521216 -22.10296685230858 -3.3388440606596457 -11.739332994446055 -0.18895224750951037 
0.5273548 0.9959912607377773 -0.005869940000000001 11.389317389107813 -0.01192389362375234 93.05137585580303 -2.569732530161064 -7.699095954144155 -3.080092375794056 4.50000311343167 61.838026065870054 15.338064045477394 -8.05881640451934 0.18789578266355336 0.5539029419220581 5.118983457435375 8.041163780609441 0.9258034338563732 -3.2828102559259187 4.141449344744089 1.8494308121318626 68.09775100621417 12.657066239632941 24.94615774527874 4.109887467476283 16.993039371938995 13.972077437893619 -78.31168419294293 11.609657584185133 7.092417634609289 -6.443057462951013 31.857323930543867 -9.53830624195674 4.178244854463417 -0.15091032164814752 -3.5472122147824017 1.1385819691922532 22.18272467879411 -22.008090402095224 -2.854047265212484 -13.00521293445954 -0.20772834415638286 
